<?xml version="1.0" encoding="UTF-8"?>
<svg version="1.1" xmlns="http://www.w3.org/2000/svg" width="1203" height="754">
<path d="M0 0 C396.99 0 793.98 0 1203 0 C1203 248.82 1203 497.64 1203 754 C806.01 754 409.02 754 0 754 C0 505.18 0 256.36 0 0 Z " fill="#FBFBFA" transform="translate(0,0)"/>
<path d="M0 0 C2.02441984 -0.00773577 4.04882879 -0.01897861 6.07321191 -0.03341919 C11.66649555 -0.06304731 17.25866686 -0.04252282 22.85191634 -0.01419521 C28.92529341 0.00782115 34.99851005 -0.01638205 41.07187462 -0.03481019 C51.72620837 -0.06068369 62.38016919 -0.05690946 73.03447723 -0.03325081 C84.46827279 -0.00800096 95.90188315 -0.00010804 107.33570099 -0.01347923 C108.41830983 -0.01472786 108.41830983 -0.01472786 109.52278955 -0.01600172 C112.46224366 -0.01945109 115.40169759 -0.02302678 118.34115135 -0.02676209 C145.73096847 -0.06155706 173.12064883 -0.05717237 200.51046753 -0.02808952 C226.90920536 -0.00009503 253.3078814 0.01400233 279.70663452 0.00849342 C281.36335311 0.00816766 283.02007169 0.00784359 284.67679028 0.00752121 C291.33416059 0.00620463 297.99153087 0.00479713 304.64890113 0.00327053 C323.25995258 -0.00095312 341.87100375 -0.00245766 360.48205566 -0.0018959 C361.32961657 -0.00187114 362.17717748 -0.00184638 363.05042206 -0.00182087 C390.06452811 -0.00084184 417.07861496 0.01201322 444.0927124 0.03321838 C444.96911742 0.03390526 445.84552245 0.03459213 446.7484852 0.03529982 C460.98147033 0.04649758 475.2144549 0.05836581 489.44743944 0.07027795 C545.9000185 0.11748189 602.35248949 0.12986851 658.80508423 0.10905266 C662.3723913 0.10774624 665.93969838 0.10644362 669.50700545 0.10514165 C670.38900512 0.10481958 671.27100479 0.10449751 672.17973172 0.10416568 C681.94725437 0.10060684 691.71477706 0.09716255 701.4822998 0.09385681 C702.3581852 0.09355808 703.23407059 0.09325934 704.13649797 0.09295156 C750.56772758 0.07724126 796.99894758 0.08844616 843.43017379 0.1100834 C850.08165544 0.11318196 856.73313713 0.11620866 863.38461882 0.11923305 C865.86543404 0.12036952 868.34624924 0.1215325 870.82706444 0.12269652 C888.98227492 0.13110432 907.13747458 0.13548854 925.29268646 0.12932634 C926.11135839 0.12904912 926.93003032 0.1287719 927.77351049 0.12848628 C931.89565359 0.12706543 936.01779666 0.12557303 940.13993973 0.12405156 C969.90954271 0.11308218 999.67903179 0.12128007 1029.44860983 0.16402866 C1032.37884351 0.16815339 1035.30907731 0.17218686 1038.23931122 0.17614937 C1038.95845889 0.17713126 1039.67760657 0.17811316 1040.4185466 0.1791248 C1051.82345169 0.19416524 1063.22825602 0.18911045 1074.63315953 0.17580168 C1085.83711123 0.16315782 1097.04087717 0.17237042 1108.24480791 0.20355829 C1114.24259554 0.21964769 1120.23998087 0.22607424 1126.23776698 0.20641316 C1131.68714901 0.1887521 1137.13575462 0.19837368 1142.5850651 0.23037203 C1144.5508726 0.23703683 1146.51674578 0.23351479 1148.48251036 0.21891507 C1151.14174954 0.20061417 1153.79827818 0.218965 1156.45737648 0.24674618 C1157.22217029 0.232638 1157.9869641 0.21852982 1158.77493348 0.20399411 C1162.93583697 0.29163264 1165.2996509 1.03570655 1168.2456392 3.86079227 C1172.00504455 7.9813065 1172.13119934 12.13102439 1172.0687561 17.5011425 C1171.21415666 25.09758197 1163.71732681 30.30474531 1158.1625061 34.8136425 C1149.82746319 41.37916679 1141.18748921 47.42165892 1132.4125061 53.3761425 C1125.78402489 57.87682771 1119.38453094 62.53584355 1113.08047485 67.48161125 C1109.30405303 70.41057291 1105.39178985 73.13936744 1101.4750061 75.8761425 C1095.85855631 79.80307071 1090.31620823 83.80499711 1084.8500061 87.9386425 C1078.53351511 92.71498219 1072.14542893 97.38015686 1065.71401978 102.00041008 C1060.97313475 105.41037799 1056.26359324 108.85896582 1051.57339478 112.3383007 C1037.01374565 123.13529418 1022.09758769 133.29884358 1006.7875061 143.0011425 C1006.10027466 143.43894035 1005.41304321 143.8767382 1004.70498657 144.32780266 C976.37779216 162.29609825 946.40310812 176.84382339 914.7875061 188.0011425 C913.68294067 188.39656242 912.57837524 188.79198235 911.44033813 189.19938469 C883.24695753 199.22953081 854.05487043 207.51877778 824.37393188 211.63639641 C821.77579035 212.0027947 819.18651694 212.40805705 816.59609985 212.82536125 C805.03377097 214.67192211 793.45660959 216.04092004 781.7875061 217.0011425 C781.09060669 217.06043938 780.39370728 217.11973625 779.6756897 217.18083 C743.77923964 220.07806931 707.3772566 217.94281574 671.7875061 213.0011425 C670.37221993 212.81175352 668.95686276 212.62289383 667.54141235 212.43473625 C657.50127353 211.06218767 647.65961693 209.01828958 637.7875061 206.7511425 C636.84890747 206.53570793 635.91030884 206.32027336 634.94326782 206.09831047 C632.93263209 205.63680442 630.9220541 205.17504671 628.91152954 204.71305656 C625.75030625 203.99266526 622.58580425 203.28848447 619.4203186 202.58708 C608.05064229 200.04752055 596.84020445 197.24877147 585.68399048 193.89274406 C574.41735228 190.53027686 563.03960432 187.59827526 551.66152954 184.64079094 C538.52943586 181.22402505 525.44781208 177.64580698 512.4125061 173.8761425 C505.53301565 171.9049643 498.60886899 170.17417512 491.65615845 168.48258781 C479.43201494 165.50033823 467.32759181 162.21275032 455.24258423 158.71110344 C442.69566137 155.0827769 430.07435825 151.77530983 417.42160034 148.53831291 C408.53080596 146.26114063 399.68443332 143.87481977 390.87612915 141.29484367 C381.60391646 138.60636474 372.24366996 136.25053256 362.88320923 133.8917675 C355.81485675 132.09639867 348.83168744 130.1580668 341.88516235 127.93522453 C338.21556409 126.82867638 334.50883543 125.9126162 330.7875061 125.0011425 C329.38621113 124.64756275 327.98533828 124.29230633 326.58486938 123.93546867 C325.86276276 123.75155067 325.14065613 123.56763268 324.39666748 123.3781414 C321.10092493 122.53718898 317.80544091 121.69522959 314.51016235 120.85246086 C312.79648592 120.41453922 311.08262247 119.97734871 309.36856079 119.54093742 C297.46460019 116.50972983 285.61048161 113.33394183 273.7875061 110.0011425 C263.0683351 106.98989455 252.33614635 104.06309645 241.54458618 101.31974602 C235.88484966 99.86499966 230.28316278 98.2663257 224.6859436 96.59098625 C216.60220945 94.18123144 208.45659121 92.11172629 200.26126099 90.12013054 C188.91910747 87.35938291 177.59932114 84.58906714 166.47573853 81.02873039 C161.21282547 79.35599195 155.89333567 78.00645862 150.53160095 76.68606377 C144.82756235 75.27561751 139.14699388 73.78629869 133.47109985 72.2667675 C132.56912872 72.02529991 131.66715759 71.78383232 130.737854 71.53504753 C128.86437732 71.03289609 126.99099634 70.53038746 125.1177063 70.02754021 C107.35463445 65.2554694 107.35463445 65.2554694 89.55703735 60.61442375 C88.86021347 60.43561668 88.16338959 60.25680962 87.44544983 60.07258415 C84.30488343 59.26826274 81.16307552 58.46915783 78.01968384 57.67594719 C71.90470899 56.11964957 65.84584558 54.44218477 59.8031311 52.63004875 C48.59717083 49.27988511 37.24613428 46.49903614 25.90420532 43.65250969 C23.09376897 42.94595672 20.28437446 42.23536551 17.4750061 41.52458 C16.21381958 41.21041634 16.21381958 41.21041634 14.92715454 40.88990593 C10.11922545 39.67283274 5.42408942 38.27486073 0.73725891 36.65107536 C-1.93785218 35.75935073 -4.65142615 35.12429956 -7.3999939 34.5011425 C-15.1069866 32.59395522 -19.5344023 30.41681097 -24.2124939 24.0011425 C-25.23408162 20.93637932 -25.51399522 18.53227776 -25.6499939 15.3136425 C-25.71057983 14.31977531 -25.77116577 13.32590813 -25.83358765 12.30192375 C-23.19258449 -1.73359618 -11.70582196 -0.12421035 0 0 Z " fill="#010101" transform="translate(29.212493896484375,-1.0011425018310547)"/>
<path d="M0 0 C1.68291543 -0.00452395 1.68291543 -0.00452395 3.39982915 -0.0091393 C4.64528213 -0.00736983 5.89073511 -0.00560036 7.1739291 -0.00377727 C8.49245986 -0.0058299 9.81099062 -0.00788253 11.16947687 -0.00999737 C14.85814324 -0.01558923 18.5467865 -0.01488702 22.23545576 -0.01321978 C26.23762391 -0.01249146 30.2397854 -0.01750505 34.24195075 -0.0217948 C42.19275852 -0.02939243 50.14355959 -0.03156875 58.09437061 -0.03212385 C67.61253309 -0.03303576 77.13068931 -0.03969817 86.64884911 -0.04647068 C109.65800049 -0.06255122 132.66715122 -0.06843632 155.67630721 -0.07321942 C166.5561755 -0.07555336 177.43604327 -0.07915579 188.31591115 -0.0829148 C225.54128825 -0.09575224 262.76666506 -0.10647118 299.99204433 -0.1099174 C302.330046 -0.11013904 304.66804766 -0.11036082 307.00604933 -0.11058275 C309.34978115 -0.1108034 311.69351297 -0.11102388 314.0372448 -0.1112442 C318.73937603 -0.11168676 323.44150726 -0.11213387 328.14363849 -0.11258388 C329.30949879 -0.11269327 330.47535909 -0.11280266 331.67654849 -0.11291536 C369.48718615 -0.11654671 407.29780466 -0.13246872 445.10843498 -0.15577424 C485.06126045 -0.18035523 525.01407496 -0.19408944 564.96690822 -0.19528532 C569.3505139 -0.19545678 573.73411958 -0.19567221 578.11772525 -0.19591975 C579.19713339 -0.19597552 580.27654153 -0.19603129 581.38865901 -0.19608875 C598.78043644 -0.19724073 616.17219426 -0.20827524 633.56396506 -0.22280681 C651.03686229 -0.23715398 668.5097343 -0.24041889 685.98263581 -0.23236683 C696.37006104 -0.2279021 706.757405 -0.23180479 717.14481959 -0.24760534 C724.07892436 -0.25732888 731.01297198 -0.25620228 737.94707619 -0.24616911 C741.90096963 -0.24075804 745.85470662 -0.24012789 749.80858733 -0.25267783 C753.40565796 -0.26400022 757.00244455 -0.26151082 760.59950526 -0.24801075 C762.50253911 -0.24442663 764.40558331 -0.25556451 766.30858433 -0.26730204 C772.83244716 -0.22714716 777.86255448 0.23110552 783.75301349 3.1276505 C788.65578174 8.28184276 789.22588234 12.05660635 789.15926349 19.0182755 C788.05247851 27.48943746 780.03809114 32.81776259 773.68148029 37.72774816 C771.42490877 39.41859052 769.15510182 41.08954517 766.87801349 42.7526505 C765.63398761 43.66506505 765.63398761 43.66506505 764.3648299 44.59591222 C755.55430955 51.03817543 746.63586993 57.32509069 737.6851424 63.57052159 C728.15897188 70.21883082 718.78383934 77.03252697 709.52718341 84.05269933 C705.34581916 87.21783328 701.1257379 90.22978439 696.75301349 93.1276505 C693.81550165 95.24536593 690.9103027 97.40620748 688.00301349 99.5651505 C681.59046516 104.30858583 675.16065662 109.02554583 668.69051349 113.6901505 C667.95212238 114.22253331 667.21373127 114.75491612 666.45296466 115.30343175 C663.47731106 117.44748572 660.50039565 119.58978414 657.5235213 121.73214269 C648.07116548 128.53701154 638.66201837 135.39521859 629.29622638 142.31881261 C624.74475906 145.67781342 620.15697651 148.96657883 615.50301349 152.182338 C610.70869816 155.57377129 606.00429317 159.08821626 601.28231037 162.57931066 C593.44974257 168.36493882 585.55695804 174.06480904 577.65535724 179.75558019 C575.1826278 181.53904264 572.71705361 183.33220664 570.25301349 185.1276505 C566.29052972 188.01442932 562.31750679 190.88625974 558.34114826 193.7538712 C549.99108736 199.77599406 541.67348838 205.84007189 533.37703693 211.93575597 C527.81772784 216.01581415 522.23515815 220.06367123 516.63582599 224.088588 C509.2076305 229.43221339 501.80764769 234.80341515 494.50301349 240.3151505 C488.55373092 244.80277157 482.53730152 249.17873217 476.46004474 253.49093175 C469.18802934 258.65229387 461.97663318 263.89890505 454.75301349 269.1276505 C453.78879474 269.82503331 452.82457599 270.52241612 451.83113849 271.24093175 C446.8459322 274.85598041 441.88594017 278.50424467 436.93245685 282.16256261 C429.28580891 287.80896072 421.61022455 293.40618341 413.86238849 298.91280675 C410.16758049 301.54466119 406.50044283 304.2128887 402.83504474 306.885463 C398.96010813 309.70449166 395.07569484 312.5102653 391.19051349 315.3151505 C390.42344074 315.86904454 389.65636798 316.42293859 388.8660506 316.9936173 C384.95178807 319.81966047 381.0365624 322.64436048 377.12020099 325.46749425 C368.25044951 331.8635306 359.40681998 338.29302472 350.59725177 344.77169347 C347.40085753 347.12180912 344.20203249 349.46860955 341.00301349 351.8151505 C340.3708089 352.2789713 339.73860431 352.7427921 339.08724201 353.22066808 C335.56571321 355.80293818 332.0379434 358.37623529 328.50301349 360.9401505 C324.29481603 363.99438621 320.10851518 367.07733503 315.92610919 370.166713 C308.85804947 375.38739948 301.77006712 380.57158452 294.60262287 385.65499425 C291.00368742 388.21423723 287.46066464 390.83630295 283.94051349 393.5026505 C279.11508365 397.14910349 274.20459906 400.65477703 269.25301349 404.1276505 C263.40572389 408.22973918 257.64733296 412.42100343 251.95223224 416.73311925 C245.73200665 421.38879482 239.40617641 425.90044695 233.09969318 430.43819737 C229.31420364 433.16349779 225.53375189 435.89576477 221.75301349 438.6276505 C217.26692304 441.86898345 212.77996515 445.10907007 208.28816974 448.34249425 C200.49385089 453.95668525 192.7287054 459.6068086 185.00301349 465.3151505 C171.29100185 475.43884189 171.29100185 475.43884189 164.69051349 480.06124425 C162.93912765 481.29326966 161.20323117 482.54857759 159.50301349 483.85030675 C154.1884257 487.69695396 149.19507463 488.14684226 142.75301349 487.1276505 C138.54603257 485.80811774 136.10287448 483.55824864 133.31551349 480.1276505 C130.80700693 474.90067427 130.7072486 469.76316132 131.75301349 464.1276505 C133.65970196 459.34031649 136.02886919 454.90724609 138.52059162 450.40352941 C140.75983022 446.26839028 142.80132036 442.03355732 144.87801349 437.8151505 C147.86626551 431.76793304 150.99158668 425.81838179 154.2398299 419.90670323 C156.68741175 415.41157187 159.02703032 410.86131439 161.37801349 406.3151505 C165.49231375 398.38663206 169.69857094 390.51697047 174.00301349 382.6901505 C178.80920966 373.9369965 183.35799329 365.09265853 187.75301349 356.1276505 C189.4132368 352.74943307 191.08166053 349.37537309 192.75301349 346.0026505 C193.32173175 344.84031896 193.32173175 344.84031896 193.90193927 343.65450597 C196.58900897 338.23413499 199.52514445 332.99043768 202.54994953 327.75162816 C206.72069741 320.49707326 210.60575672 313.0940411 214.50301349 305.6901505 C215.29793523 304.18453063 216.09302204 302.6789979 216.8882674 301.17354894 C221.81046613 291.84864374 226.68822477 282.50113638 231.54793537 273.14351964 C236.37636371 263.87640535 241.40344595 254.71980431 246.42488849 245.55636144 C251.45489119 236.35811385 256.30866701 227.09213398 260.95833576 217.69576573 C262.70252917 214.18266626 264.49639575 210.72343192 266.44051349 207.3151505 C271.13370282 199.04240998 276.29126628 189.94742703 274.75301349 180.1276505 C269.65464503 167.61997085 257.16588089 162.48663364 245.75301349 157.1276505 C244.03768458 156.31226411 242.3228577 155.49582091 240.60848224 154.67843175 C237.92095734 153.39763698 235.23288365 152.11811589 232.54232013 150.84371495 C226.50982287 147.98326599 220.52855185 145.03575068 214.56941974 142.026088 C209.83448612 139.6442147 205.05621414 137.36830902 200.25301349 135.1276505 C192.67938931 131.59231482 185.19788321 127.89400327 177.73690021 124.1276505 C174.4132633 122.45233463 171.08279335 120.79071333 167.75301349 119.1276505 C166.41964761 118.46104893 165.08631427 117.79438228 163.75301349 117.1276505 C163.09301349 116.7976505 162.43301349 116.4676505 161.75301349 116.1276505 C155.75301349 113.1276505 155.75301349 113.1276505 153.75472248 112.12838292 C152.41582259 111.45901463 151.07679174 110.78990825 149.73763263 110.1210587 C146.48836424 108.49780449 143.24118416 106.87069459 139.99910724 105.23311925 C131.23088725 100.81277694 122.39896475 96.53813811 113.52425373 92.33541417 C105.93415266 88.73006544 98.42003834 84.98201501 90.91146076 81.21090245 C87.23585218 79.36623836 83.55672819 77.52861007 79.87801349 75.6901505 C78.36237217 74.93237064 76.84674726 74.17455797 75.33113849 73.416713 C74.5763924 73.03933995 73.8216463 72.66196691 73.04402912 72.27315831 C66.17488849 68.838588 66.17488849 68.838588 63.89540851 67.69878697 C62.3895736 66.94591006 60.88367403 66.19316247 59.37770832 65.44054723 C55.73727748 63.62102892 52.09791575 61.7994432 48.4610213 59.97286534 C40.84571979 56.15073471 33.20553202 52.39685281 25.50301349 48.7526505 C17.84559801 45.10834268 10.21654082 41.41347309 2.62801349 37.6276505 C1.80526935 37.21853429 0.98252521 36.80941808 0.13484943 36.38790441 C-11.60333969 30.50403244 -11.60333969 30.50403244 -15.24698651 24.1276505 C-16.97490925 18.50904078 -17.24829234 13.09317677 -14.55948651 7.8151505 C-10.10777172 2.64153601 -6.8031891 0.00360452 0 0 Z " fill="#010101" transform="translate(48.246986508369446,261.8723495006561)"/>
<path d="M0 0 C3.3 0 6.6 0 10 0 C9.175 1.0725 8.35 2.145 7.5 3.25 C4.1241018 8.63992838 4.20802472 13.82085224 5 20 C7.05205329 26.04815706 10.84580263 28.56386842 16 32 C13.23735711 32.59732819 10.83967231 33 8 33 C7.01 32.34 6.02 31.68 5 31 C4.8125 28.375 4.8125 28.375 5 26 C3.35 25.67 1.7 25.34 0 25 C0 16.75 0 8.5 0 0 Z " fill="#F0EFEF" transform="translate(0,0)"/>
<path d="M0 0 C0.66 0.33 1.32 0.66 2 1 C-4.93 14.365 -4.93 14.365 -12 28 C-13.32 26.68 -14.64 25.36 -16 24 C-15 21 -15 21 -13 19 C-12.30251417 17.68252676 -11.63040043 16.35085807 -11 15 C-10.34 15 -9.68 15 -9 15 C-8.36605303 10.95858806 -7.87595548 7.0934693 -8 3 C-5.34771188 1.92474806 -2.71631546 0.90543849 0 0 Z " fill="#EAEAE9" transform="translate(310,475)"/>
<path d="M0 0 C0.66 0.66 1.32 1.32 2 2 C1.40832031 3.11117187 0.81664062 4.22234375 0.20703125 5.3671875 C-3.95588383 13.19917216 -8.10350888 21.03079454 -12 29 C-12.33 29 -12.66 29 -13 29 C-12.979375 28.071875 -12.95875 27.14375 -12.9375 26.1875 C-12.84230396 22.97713989 -12.84230396 22.97713989 -14 20 C-13.01 19.67 -12.02 19.34 -11 19 C-9.81608777 16.62374655 -9.81608777 16.62374655 -9 14 C-8.67 13.01 -8.34 12.02 -8 11 C-7.7525 10.01 -7.505 9.02 -7.25 8 C-5.75401933 4.40964639 -4.3820191 3.73436877 -1 2 C-0.67 1.34 -0.34 0.68 0 0 Z " fill="#EBEBEA" transform="translate(237,612)"/>
<path d="M0 0 C0.33 0 0.66 0 1 0 C1.08636719 0.86882813 1.17273438 1.73765625 1.26171875 2.6328125 C2.34305844 11.95953219 2.34305844 11.95953219 8 19 C10.6514482 20.39819512 10.6514482 20.39819512 13 21 C12.01 21.66 11.02 22.32 10 23 C7.9375 22.5625 7.9375 22.5625 6 22 C5.34 22.33 4.68 22.66 4 23 C2 21 2 21 1.875 18.375 C1.91625 17.59125 1.9575 16.8075 2 16 C0.35 15.67 -1.3 15.34 -3 15 C-3 12.03 -3 9.06 -3 6 C-2.34 6.66 -1.68 7.32 -1 8 C-0.67 5.36 -0.34 2.72 0 0 Z " fill="#EEEEEE" transform="translate(3,10)"/>
<path d="M0 0 C0.66 0.33 1.32 0.66 2 1 C1.195625 1.763125 0.39125 2.52625 -0.4375 3.3125 C-3.16799024 5.79430898 -3.16799024 5.79430898 -4 9 C-6.31 8.34 -8.62 7.68 -11 7 C-11 7.99 -11 8.98 -11 10 C-14.96 10 -18.92 10 -23 10 C-21.32812289 5.77631047 -21.32812289 5.77631047 -19 4 C-15.67244646 3.70911453 -12.48626832 3.88217847 -9.15234375 4.0546875 C-4.82964286 3.97969641 -3.12543159 2.85753745 0 0 Z " fill="#F3F3F3" transform="translate(208,744)"/>
<path d="M0 0 C2.97 0 5.94 0 9 0 C9.08086376 2.93804996 9.1404283 5.87388075 9.1875 8.8125 C9.21263672 9.64587891 9.23777344 10.47925781 9.26367188 11.33789062 C9.27817383 12.54155273 9.27817383 12.54155273 9.29296875 13.76953125 C9.31653442 14.87711792 9.31653442 14.87711792 9.34057617 16.00708008 C8.91074167 18.52230522 7.92536938 19.39441516 6 21 C6.05220703 19.78763672 6.05220703 19.78763672 6.10546875 18.55078125 C6.14607422 16.94783203 6.14607422 16.94783203 6.1875 15.3125 C6.23970703 13.72888672 6.23970703 13.72888672 6.29296875 12.11328125 C5.82300628 7.11914674 3.00583429 3.86464408 0 0 Z " fill="#EDECED" transform="translate(1194,0)"/>
<path d="M0 0 C0.5534764 2.07553648 1 3.84365964 1 6 C-4.445 7.485 -4.445 7.485 -10 9 C-10 8.01 -10 7.02 -10 6 C-10.66 5.67 -11.32 5.34 -12 5 C-12 4.01 -12 3.02 -12 2 C-10.700625 1.7834375 -10.700625 1.7834375 -9.375 1.5625 C-7.704375 1.2840625 -7.704375 1.2840625 -6 1 C-4 0.66666667 -2 0.33333333 0 0 Z " fill="#0E0E0E" transform="translate(929,186)"/>
<path d="M0 0 C9.59453303 4.03872437 9.59453303 4.03872437 13 7 C11.02579865 9.52259061 10.03254358 9.9929808 6.8125 10.6875 C5.4203125 10.8421875 5.4203125 10.8421875 4 11 C3.896875 10.38125 3.79375 9.7625 3.6875 9.125 C3.12474627 6.63473516 3.12474627 6.63473516 0 5 C-0.1875 2.375 -0.1875 2.375 0 0 Z M1 7 C1.66 7.33 2.32 7.66 3 8 C2.01 8 1.02 8 0 8 C0.33 7.67 0.66 7.34 1 7 Z " fill="#ECECEC" transform="translate(189,367)"/>
<path d="M0 0 C-1.98 3.63 -3.96 7.26 -6 11 C-7.32 10.01 -8.64 9.02 -10 8 C-9.67 5.36 -9.34 2.72 -9 0 C-2.25 -1.125 -2.25 -1.125 0 0 Z " fill="#E4E4E2" transform="translate(191,706)"/>
<path d="M0 0 C0.33 0.99 0.66 1.98 1 3 C1.66 3.33 2.32 3.66 3 4 C-0.96 5.65 -4.92 7.3 -9 9 C-9.66 8.34 -10.32 7.68 -11 7 C-10.625 3.875 -10.625 3.875 -10 1 C-9.0925 1.20625 -8.185 1.4125 -7.25 1.625 C-3.88972103 2.0127245 -2.75924185 1.80411967 0 0 Z " fill="#141414" transform="translate(976,169)"/>
<path d="M0 0 C5.65611463 -0.56561146 9.22642128 1.28608722 14 4 C14 4.66 14 5.32 14 6 C7.9453125 6.9765625 7.9453125 6.9765625 6 7 C5.34 6.34 4.68 5.68 4 5 C3.01 5 2.02 5 1 5 C0.01 4.67 -0.98 4.34 -2 4 C-1.34 2.68 -0.68 1.36 0 0 Z " fill="#F1F1F1" transform="translate(127,339)"/>
<path d="M0 0 C0.33 0.66 0.66 1.32 1 2 C4.46941546 1.54177532 7.67395049 1.10868317 11 0 C11.66 0.66 12.32 1.32 13 2 C10.6185955 4.63207866 8.2464352 6.53137455 5 8 C2.1875 7.1875 2.1875 7.1875 0 6 C0 4 0 2 0 0 Z " fill="#0F0F0F" transform="translate(997,154)"/>
<path d="M0 0 C-1.44950455 3.7910119 -3.15172566 7.3874638 -5 11 C-7 9.875 -7 9.875 -9 8 C-9.25 4.8125 -9.25 4.8125 -9 2 C-5.62902617 0.50178941 -3.79557881 0 0 0 Z " fill="#E3E3E3" transform="translate(207,674)"/>
<path d="M0 0 C2.1640625 0.77734375 2.1640625 0.77734375 4.625 1.9375 C5.44226563 2.31777344 6.25953125 2.69804687 7.1015625 3.08984375 C7.72804688 3.39019531 8.35453125 3.69054687 9 4 C7.25 6.0625 7.25 6.0625 5 8 C2.875 7.6875 2.875 7.6875 1 7 C0.01 7.495 0.01 7.495 -1 8 C-3 5 -3 5 -2.75 2.875 C-2 1 -2 1 0 0 Z " fill="#F2F2F2" transform="translate(65,306)"/>
<path d="M0 0 C-1.44950455 3.7910119 -3.15172566 7.3874638 -5 11 C-5.66 11 -6.32 11 -7 11 C-7 10.34 -7 9.68 -7 9 C-7.66 8.67 -8.32 8.34 -9 8 C-8.5504955 6.68445015 -8.09010284 5.37261642 -7.625 4.0625 C-7.36976563 3.33160156 -7.11453125 2.60070312 -6.8515625 1.84765625 C-5.2258697 -1.67964968 -3.25356731 -0.97607019 0 0 Z " fill="#E6E6E5" transform="translate(261,571)"/>
<path d="M0 0 C1.65 0 3.3 0 5 0 C2.69 4.62 0.38 9.24 -2 14 C-2.33 13.01 -2.66 12.02 -3 11 C-3.66 10.67 -4.32 10.34 -5 10 C-4.67 8.02 -4.34 6.04 -4 4 C-3.34 4 -2.68 4 -2 4 C-1.34 2.68 -0.68 1.36 0 0 Z " fill="#E2E2E1" transform="translate(291,506)"/>
<path d="M0 0 C1 3 1 3 1 4 C1.99 4.33 2.98 4.66 4 5 C2.23358317 5.6987693 0.46167336 6.38366583 -1.3125 7.0625 C-2.79169922 7.63677734 -2.79169922 7.63677734 -4.30078125 8.22265625 C-7 9 -7 9 -10 8 C-9.1875 6.0625 -9.1875 6.0625 -8 4 C-7.01 3.67 -6.02 3.34 -5 3 C-4.67 2.34 -4.34 1.68 -4 1 C-2 0 -2 0 0 0 Z " fill="#161616" transform="translate(951,178)"/>
<path d="M0 0 C1.65 0 3.3 0 5 0 C4.67 0.99 4.34 1.98 4 3 C3.93029948 5.39490986 3.91551997 7.79167691 3.9375 10.1875 C3.94652344 11.45980469 3.95554688 12.73210938 3.96484375 14.04296875 C3.97644531 15.01878906 3.98804688 15.99460937 4 17 C1 15 1 15 0.25 13.125 C0 11 0 11 0.5625 8.9375 C0.7790625 7.9784375 0.7790625 7.9784375 1 7 C0.34 6.01 -0.32 5.02 -1 4 C-0.625 1.8125 -0.625 1.8125 0 0 Z M-2 6 C-1.34 6 -0.68 6 0 6 C0 6.66 0 7.32 0 8 C-0.66 8 -1.32 8 -2 8 C-2 7.34 -2 6.68 -2 6 Z " fill="#E2E1E2" transform="translate(177,723)"/>
<path d="M0 0 C4.23429756 1.31061591 8.07407404 2.94356259 12 5 C11.34 6.32 10.68 7.64 10 9 C9.01 8.67 8.02 8.34 7 8 C7 7.34 7 6.68 7 6 C4.50935112 5.31292445 2.62113708 5 0 5 C-0.5625 3.0625 -0.5625 3.0625 -1 1 C-0.67 0.67 -0.34 0.34 0 0 Z " fill="#EBEBEB" transform="translate(174,360)"/>
<path d="M0 0 C0.66 0.33 1.32 0.66 2 1 C1 3 1 3 0 4 C0.99 4.33 1.98 4.66 3 5 C1.35 7.97 -0.3 10.94 -2 14 C-2.99 12.68 -3.98 11.36 -5 10 C-4.67 9.01 -4.34 8.02 -4 7 C-3.34 7 -2.68 7 -2 7 C-2 6.34 -2 5.68 -2 5 C-2.66 5 -3.32 5 -4 5 C-4 4.34 -4 3.68 -4 3 C-3.34 3 -2.68 3 -2 3 C-2 2.34 -2 1.68 -2 1 C-1.34 0.67 -0.68 0.34 0 0 Z " fill="#E7E6E5" transform="translate(274,538)"/>
<path d="M0 0 C1.98 0 3.96 0 6 0 C4.78065514 4.03321763 3.44045073 7.54269479 1 11 C0.34 11 -0.32 11 -1 11 C-1 10.34 -1 9.68 -1 9 C-1.66 9 -2.32 9 -3 9 C-2.1875 6.5625 -2.1875 6.5625 -1 4 C-0.01 3.67 0.98 3.34 2 3 C2 2.34 2 1.68 2 1 C1.34 0.67 0.68 0.34 0 0 Z " fill="#E5E5E3" transform="translate(264,554)"/>
<path d="M0 0 C0.66 0.33 1.32 0.66 2 1 C0.51095825 4.89608498 -1.24378713 8.59097018 -3.125 12.3125 C-3.66382813 13.38113281 -4.20265625 14.44976563 -4.7578125 15.55078125 C-5.37269531 16.76314453 -5.37269531 16.76314453 -6 18 C-6.33 18 -6.66 18 -7 18 C-7 14.37 -7 10.74 -7 7 C-5.68 6.67 -4.36 6.34 -3 6 C-1.21620585 3.01647106 -1.21620585 3.01647106 0 0 Z " fill="#E7E6E4" transform="translate(284,523)"/>
<path d="M0 0 C0.99 0 1.98 0 3 0 C1.74194623 4.50802601 0.09592835 7.4912812 -3 11 C-4.49821059 7.62902617 -5 5.79557881 -5 2 C-3.68 2.33 -2.36 2.66 -1 3 C-0.67 2.01 -0.34 1.02 0 0 Z " fill="#E3E3E1" transform="translate(250,586)"/>
<path d="M0 0 C4.29 0.99 8.58 1.98 13 3 C12.67 3.99 12.34 4.98 12 6 C9.03 6 6.06 6 3 6 C2.67 5.01 2.34 4.02 2 3 C1.34 2.67 0.68 2.34 0 2 C0 1.34 0 0.68 0 0 Z " fill="#EEEEEE" transform="translate(323,114)"/>
<path d="M0 0 C4.87362847 0.45336079 7.39042389 1.7089159 11 5 C10.01 6.485 10.01 6.485 9 8 C6.69 7.34 4.38 6.68 2 6 C2.33 5.34 2.66 4.68 3 4 C2.01 3.34 1.02 2.68 0 2 C0 1.34 0 0.68 0 0 Z " fill="#ECECEC" transform="translate(79,314)"/>
<path d="M0 0 C4.23429756 1.31061591 8.07407404 2.94356259 12 5 C11.01 5.66 10.02 6.32 9 7 C9 6.34 9 5.68 9 5 C7.56163249 5.11458693 6.12429034 5.24209116 4.6875 5.375 C3.48673828 5.47941406 3.48673828 5.47941406 2.26171875 5.5859375 C-0.27224441 5.89564426 -0.27224441 5.89564426 -3 8 C-2.5359375 7.13375 -2.5359375 7.13375 -2.0625 6.25 C-1.07416636 4.15705816 -0.4831387 2.25464725 0 0 Z " fill="#E5E5E5" transform="translate(160,353)"/>
<path d="M0 0 C0.33 0.66 0.66 1.32 1 2 C1.99 2 2.98 2 4 2 C4 2.66 4 3.32 4 4 C2.75823305 4.70226141 1.50614401 5.38629109 0.25 6.0625 C-0.79414062 6.63677734 -0.79414062 6.63677734 -1.859375 7.22265625 C-4.36140628 8.1312406 -5.5332355 7.88336837 -8 7 C-5.42215154 4.35247996 -3.08351902 2.05567935 0 0 Z " fill="#111010" transform="translate(1021,145)"/>
<path d="M0 0 C0.66 0.33 1.32 0.66 2 1 C1.195625 1.763125 0.39125 2.52625 -0.4375 3.3125 C-3.16799024 5.79430898 -3.16799024 5.79430898 -4 9 C-7.3 8.01 -10.6 7.02 -14 6 C-14 5.67 -14 5.34 -14 5 C-12.205625 4.87625 -12.205625 4.87625 -10.375 4.75 C-5.95622973 4.2232071 -3.48560017 2.70134013 0 0 Z " fill="#E8E8E8" transform="translate(208,744)"/>
<path d="M0 0 C5.94 1.485 5.94 1.485 12 3 C12 3.66 12 4.32 12 5 C4.375 6.25 4.375 6.25 1 4 C0.67 2.68 0.34 1.36 0 0 Z " fill="#EBEBEB" transform="translate(89,51)"/>
<path d="M0 0 C3.26954202 0.56371414 4.82575883 1.49962266 7 4 C4.1875 5.5625 4.1875 5.5625 1 7 C0.01 6.67 -0.98 6.34 -2 6 C-2.33 5.01 -2.66 4.02 -3 3 C-2.34 3 -1.68 3 -1 3 C-0.67 2.01 -0.34 1.02 0 0 Z " fill="#151515" transform="translate(985,163)"/>
<path d="M0 0 C2 1.375 2 1.375 4 3 C4 3.66 4 4.32 4 5 C2.25 6.2890625 2.25 6.2890625 0 7.625 C-1.11375 8.29402344 -1.11375 8.29402344 -2.25 8.9765625 C-2.8275 9.31429687 -3.405 9.65203125 -4 10 C-4.33 8.68 -4.66 7.36 -5 6 C-4.34 5.67 -3.68 5.34 -3 5 C-2.34 5.33 -1.68 5.66 -1 6 C-1.33 4.68 -1.66 3.36 -2 2 C-1.34 2 -0.68 2 0 2 C0 1.34 0 0.68 0 0 Z " fill="#131213" transform="translate(219,730)"/>
<path d="M0 0 C1.32 0.66 2.64 1.32 4 2 C2.35 5.3 0.7 8.6 -1 12 C-1.66 11.67 -2.32 11.34 -3 11 C-3 10.34 -3 9.68 -3 9 C-3.66 8.67 -4.32 8.34 -5 8 C-3.68 8 -2.36 8 -1 8 C-1.33 7.01 -1.66 6.02 -2 5 C-1.34 4.01 -0.68 3.02 0 2 C-0.66 1.67 -1.32 1.34 -2 1 C-1.34 0.67 -0.68 0.34 0 0 Z " fill="#E8E7E7" transform="translate(194,690)"/>
<path d="M0 0 C0.33 0 0.66 0 1 0 C1.66 4.62 2.32 9.24 3 14 C0.03 13.505 0.03 13.505 -3 13 C-3 10.69 -3 8.38 -3 6 C-2.34 6.66 -1.68 7.32 -1 8 C-0.67 5.36 -0.34 2.72 0 0 Z " fill="#CBCACB" transform="translate(3,10)"/>
<path d="M0 0 C0.33 0 0.66 0 1 0 C1 5 1 10 1 15 C0.01 15.495 0.01 15.495 -1 16 C-1.97551509 13.07345473 -2.16478088 11.05345004 -2.1875 8 C-2.20167969 7.13375 -2.21585937 6.2675 -2.23046875 5.375 C-2 3 -2 3 0 0 Z " fill="#F8F6F7" transform="translate(2,3)"/>
<path d="M0 0 C0.33 1.32 0.66 2.64 1 4 C-1.13381449 7.2769294 -2.25018012 8.75006004 -6 10 C-6.66 8.68 -7.32 7.36 -8 6 C-5.36 4.02 -2.72 2.04 0 0 Z " fill="#E9E9E9" transform="translate(1188,32)"/>
<path d="M0 0 C1.98 0 3.96 0 6 0 C4.7508258 3.45925163 3.32472205 6.14693203 1 9 C0.08941469 5.92677456 -0.08886184 3.19902639 0 0 Z " fill="#E6E6E4" transform="translate(214,649)"/>
<path d="M0 0 C0.66 0.66 1.32 1.32 2 2 C1.34 2 0.68 2 0 2 C-0.33 3.98 -0.66 5.96 -1 8 C-4 8 -4 8 -6 7 C-6.66 7.66 -7.32 8.32 -8 9 C-8.66 8.34 -9.32 7.68 -10 7 C-6.7 4.69 -3.4 2.38 0 0 Z " fill="#E8E8E8" transform="translate(1125,78)"/>
<path d="M0 0 C0.66 0.99 1.32 1.98 2 3 C1.01 4.98 0.02 6.96 -1 9 C-1.33 8.34 -1.66 7.68 -2 7 C-2.99 6.67 -3.98 6.34 -5 6 C-4.75 4.125 -4.75 4.125 -4 2 C-1.9375 0.75 -1.9375 0.75 0 0 Z " fill="#E2E2E1" transform="translate(222,640)"/>
<path d="M0 0 C0.66 0.33 1.32 0.66 2 1 C0.70689829 3.88461151 -0.41557624 6.12852073 -3 8 C-6.6875 8.6875 -6.6875 8.6875 -10 9 C-6.83047153 5.73991357 -3.60062011 2.77762123 0 0 Z " fill="#EEEEEE" transform="translate(548,497)"/>
<path d="M0 0 C0.66 0.66 1.32 1.32 2 2 C-2.455 4.97 -2.455 4.97 -7 8 C-7.33 5.69 -7.66 3.38 -8 1 C-7.01 1.33 -6.02 1.66 -5 2 C-2.3430809 1.12085312 -2.3430809 1.12085312 0 0 Z " fill="#121212" transform="translate(720,370)"/>
<path d="M0 0 C-0.66 1.32 -1.32 2.64 -2 4 C-7.53846154 3.38461538 -7.53846154 3.38461538 -9.875 1.4375 C-10.24625 0.963125 -10.6175 0.48875 -11 0 C-3.375 -1.125 -3.375 -1.125 0 0 Z " fill="#E7E7E7" transform="translate(862,210)"/>
<path d="M0 0 C-0.99 0.33 -1.98 0.66 -3 1 C-3 1.99 -3 2.98 -3 4 C-5.31 3.67 -7.62 3.34 -10 3 C-9.67 2.01 -9.34 1.02 -9 0 C-5.93109813 -1.53445094 -3.29905734 -0.54984289 0 0 Z " fill="#F1F1F1" transform="translate(128,61)"/>
<path d="M0 0 C2.33944736 0.28730055 4.6739143 0.61936779 7 1 C5.75 3.5 5.75 3.5 4 6 C2.68 6 1.36 6 0 6 C-0.38218767 4.34385343 -0.71395102 2.67542976 -1 1 C-0.67 0.67 -0.34 0.34 0 0 Z " fill="#EEEEEE" transform="translate(174,74)"/>
<path d="M0 0 C-1.2491742 3.45925163 -2.67527795 6.14693203 -5 9 C-4.979375 8.071875 -4.95875 7.14375 -4.9375 6.1875 C-4.84230396 2.97713989 -4.84230396 2.97713989 -6 0 C-3 -1 -3 -1 0 0 Z " fill="#DADADA" transform="translate(229,632)"/>
<path d="M0 0 C2 1 2 1 2.875 3.1875 C3.05080326 7.14307333 1.40019614 8.96445783 -1 12 C-1.33 12 -1.66 12 -2 12 C-2 10.02 -2 8.04 -2 6 C-1.34 5.67 -0.68 5.34 0 5 C0 3.35 0 1.7 0 0 Z " fill="#ECECEB" transform="translate(229,621)"/>
<path d="M0 0 C-2 2 -2 2 -5 4 C-6.65 2.35 -8.3 0.7 -10 -1 C-5.94568308 -2.15837626 -3.78187881 -1.83691257 0 0 Z " fill="#EBEBEB" transform="translate(155,350)"/>
<path d="M0 0 C2.31 0.66 4.62 1.32 7 2 C5.35 3.65 3.7 5.3 2 7 C1.34 6.67 0.68 6.34 0 6 C0 4.02 0 2.04 0 0 Z " fill="#131313" transform="translate(536,499)"/>
<path d="M0 0 C0.268125 0.556875 0.53625 1.11375 0.8125 1.6875 C2.10122647 4.19712523 3.52926478 6.59334236 5 9 C4.21625 8.979375 3.4325 8.95875 2.625 8.9375 C0.01885039 8.81315937 0.01885039 8.81315937 -2 10 C-1.54177532 6.53058454 -1.10868317 3.32604951 0 0 Z " fill="#DFDFDF" transform="translate(32,282)"/>
<path d="M0 0 C0.99 1.32 1.98 2.64 3 4 C2.67 4.66 2.34 5.32 2 6 C0.35 6 -1.3 6 -3 6 C-3.33 5.01 -3.66 4.02 -4 3 C-2 1 -2 1 0 0 Z " fill="#0F0D0E" transform="translate(834,268)"/>
<path d="M0 0 C2.31 0.33 4.62 0.66 7 1 C6.34 2.32 5.68 3.64 5 5 C3.35 4.67 1.7 4.34 0 4 C0 2.68 0 1.36 0 0 Z " fill="#E4E4E4" transform="translate(656,203)"/>
<path d="M0 0 C1.65 0.33 3.3 0.66 5 1 C4.67 2.65 4.34 4.3 4 6 C1.69 5.34 -0.62 4.68 -3 4 C-2.34 3.67 -1.68 3.34 -1 3 C-0.67 2.01 -0.34 1.02 0 0 Z " fill="#F4F4F4" transform="translate(536,171)"/>
<path d="M0 0 C2.31 0.66 4.62 1.32 7 2 C6.01 3.485 6.01 3.485 5 5 C2.69 4.34 0.38 3.68 -2 3 C-1.34 2.01 -0.68 1.02 0 0 Z " fill="#08080A" transform="translate(70,42)"/>
<path d="M0 0 C0.66 0.33 1.32 0.66 2 1 C0.125 5.75 0.125 5.75 -1 8 C-1.99 8 -2.98 8 -4 8 C-3.67 5.69 -3.34 3.38 -3 1 C-2.01 1.33 -1.02 1.66 0 2 C0 1.34 0 0.68 0 0 Z " fill="#E0E0E0" transform="translate(209,665)"/>
<path d="M0 0 C0.66 0.33 1.32 0.66 2 1 C-2.43076923 6.78461538 -2.43076923 6.78461538 -5.3125 7.875 C-6.1478125 7.936875 -6.1478125 7.936875 -7 8 C-7 7.01 -7 6.02 -7 5 C-5.46875 3.61328125 -5.46875 3.61328125 -3.5 2.3125 C-2.8503125 1.87550781 -2.200625 1.43851562 -1.53125 0.98828125 C-1.0259375 0.66214844 -0.520625 0.33601563 0 0 Z " fill="#E9E9E9" transform="translate(792,320)"/>
<path d="M0 0 C3.63 0.66 7.26 1.32 11 2 C9.68 2.33 8.36 2.66 7 3 C6.67 3.66 6.34 4.32 6 5 C3.5625 4.1875 3.5625 4.1875 1 3 C0.67 2.01 0.34 1.02 0 0 Z " fill="#DEDEE0" transform="translate(450,148)"/>
<path d="M0 0 C1.32 0.66 2.64 1.32 4 2 C-0.75 6.875 -0.75 6.875 -3 8 C-2.37240135 5.07120629 -1.41377341 2.63904371 0 0 Z " fill="#131313" transform="translate(262,700)"/>
<path d="M0 0 C2.0625 0.4375 2.0625 0.4375 4 1 C3.01 2.98 2.02 4.96 1 7 C0.01 6.34 -0.98 5.68 -2 5 C-1.125 1.125 -1.125 1.125 0 0 Z " fill="#E7E7E7" transform="translate(240,603)"/>
<path d="M0 0 C3.63 1.65 7.26 3.3 11 5 C10.01 5.66 9.02 6.32 8 7 C4.375 5.875 4.375 5.875 1 4 C0.67 2.68 0.34 1.36 0 0 Z " fill="#D8D8D8" transform="translate(228,386)"/>
<path d="M0 0 C2.475 0.495 2.475 0.495 5 1 C5.33 1.99 5.66 2.98 6 4 C4.6875 5.5 4.6875 5.5 3 7 C2.01 7 1.02 7 0 7 C0.185625 6.21625 0.37125 5.4325 0.5625 4.625 C1.25962266 2.02910225 1.25962266 2.02910225 0 0 Z " fill="#EBEBED" transform="translate(443,146)"/>
<path d="M0 0 C0.33 0 0.66 0 1 0 C1.1799928 5.21979128 0.97094808 9.07262981 -1 14 C-2.0625 12.1875 -2.0625 12.1875 -3 10 C-2.67 9.01 -2.34 8.02 -2 7 C-1.34 7 -0.68 7 0 7 C0 4.69 0 2.38 0 0 Z " fill="#CCCCCC" transform="translate(323,442)"/>
<path d="M0 0 C2.97 0 5.94 0 9 0 C6.61426621 1.89213369 4.92824652 3.02391783 2 4 C1.34 3.67 0.68 3.34 0 3 C0 2.01 0 1.02 0 0 Z " fill="#F1F1F1" transform="translate(160,358)"/>
<path d="M0 0 C0 2 0 4 0 6 C-1.65 6.66 -3.3 7.32 -5 8 C-5.33 7.01 -5.66 6.02 -6 5 C-4.02 3.35 -2.04 1.7 0 0 Z " fill="#E9E9E9" transform="translate(284,689)"/>
<path d="M0 0 C1.98 0.99 3.96 1.98 6 3 C5.67 3.66 5.34 4.32 5 5 C3.68 4.67 2.36 4.34 1 4 C0.67 4.66 0.34 5.32 0 6 C-0.38218767 4.34385343 -0.71395102 2.67542976 -1 1 C-0.67 0.67 -0.34 0.34 0 0 Z " fill="#F4F4F4" transform="translate(144,345)"/>
<path d="M0 0 C1.2077558 3.62326739 0.54311128 4.64146369 -1 8 C-1.99 7.67 -2.98 7.34 -4 7 C-4.33 6.01 -4.66 5.02 -5 4 C-3.35 2.68 -1.7 1.36 0 0 Z " fill="#E6E6E6" transform="translate(800,314)"/>
<path d="M0 0 C3.465 1.485 3.465 1.485 7 3 C5.68 4.32 4.36 5.64 3 7 C2.71125 6.195625 2.4225 5.39125 2.125 4.5625 C1.26737432 1.8673532 1.26737432 1.8673532 -1 1 C-0.67 0.67 -0.34 0.34 0 0 Z " fill="#EDEDED" transform="translate(47,297)"/>
<path d="M0 0 C0.99 0.33 1.98 0.66 3 1 C3 1.66 3 2.32 3 3 C2.34 3 1.68 3 1 3 C1 3.66 1 4.32 1 5 C1.99 5 2.98 5 4 5 C4 5.66 4 6.32 4 7 C3.01 7.33 2.02 7.66 1 8 C0.34 7.34 -0.32 6.68 -1 6 C-0.625 2.875 -0.625 2.875 0 0 Z " fill="#1A1A1B" transform="translate(966,170)"/>
<path d="M0 0 C0.66 0.99 1.32 1.98 2 3 C1.071875 3.433125 0.14375 3.86625 -0.8125 4.3125 C-3.47184073 5.72038627 -5.08105905 6.76123556 -7 9 C-7.33 8.01 -7.66 7.02 -8 6 C-5.36 4.02 -2.72 2.04 0 0 Z " fill="#DFDFDF" transform="translate(1148,61)"/>
<path d="M0 0 C0.66 0.33 1.32 0.66 2 1 C0.68 3.64 -0.64 6.28 -2 9 C-2.66 8.67 -3.32 8.34 -4 8 C-4 6.35 -4 4.7 -4 3 C-3.01 2.67 -2.02 2.34 -1 2 C-0.67 1.34 -0.34 0.68 0 0 Z " fill="#DADAD8" transform="translate(235,617)"/>
<path d="M0 0 C3.465 1.485 3.465 1.485 7 3 C5.6875 4.5 5.6875 4.5 4 6 C3.01 6 2.02 6 1 6 C0.67 4.02 0.34 2.04 0 0 Z " fill="#EDEDED" transform="translate(118,332)"/>
<path d="M0 0 C2.31 0.33 4.62 0.66 7 1 C4.375 5.875 4.375 5.875 1 7 C1.020625 6.21625 1.04125 5.4325 1.0625 4.625 C1.18684063 2.01885039 1.18684063 2.01885039 0 0 Z " fill="#E1E1E1" transform="translate(144,66)"/>
<path d="M0 0 C0.33 0 0.66 0 1 0 C1.33 3.3 1.66 6.6 2 10 C-1 8 -1 8 -1.8125 6.125 C-2.04398726 3.50147776 -1.34771696 2.21976911 0 0 Z " fill="#DAD9DA" transform="translate(179,730)"/>
<path d="M0 0 C0.66 0.33 1.32 0.66 2 1 C1.01 2.98 0.02 4.96 -1 7 C-1.99 5.68 -2.98 4.36 -4 3 C-3 1 -3 1 0 0 Z " fill="#D5D5D4" transform="translate(189,705)"/>
<path d="M0 0 C0 3 0 3 -1.6875 5.125 C-4.20933322 7.16972964 -5.81390075 7.64598897 -9 8 C-6.17493137 5.0702992 -3.21203935 2.49825283 0 0 Z " fill="#DFDFDF" transform="translate(406,600)"/>
<path d="M0 0 C-0.66 1.32 -1.32 2.64 -2 4 C-4.31 3.34 -6.62 2.68 -9 2 C-5.5647952 -0.29013653 -4.014669 -0.17842973 0 0 Z " fill="#F2F2F2" transform="translate(90,318)"/>
<path d="M0 0 C2.97 0.495 2.97 0.495 6 1 C5.01 2.485 5.01 2.485 4 4 C2.35 3.67 0.7 3.34 -1 3 C-0.67 2.01 -0.34 1.02 0 0 Z " fill="#F2F2F3" transform="translate(543,173)"/>
<path d="M0 0 C0 0.99 0 1.98 0 3 C-0.66 2.67 -1.32 2.34 -2 2 C-1.34 1.34 -0.68 0.68 0 0 Z M-4 3 C-3.01 3.33 -2.02 3.66 -1 4 C-2.485 5.485 -2.485 5.485 -4 7 C-4.99 6.67 -5.98 6.34 -7 6 C-6.01 5.01 -5.02 4.02 -4 3 Z " fill="#E5E3E4" transform="translate(262,705)"/>
<path d="M0 0 C0.66 0 1.32 0 2 0 C1.25 3.375 1.25 3.375 0 7 C-1.98 7.99 -1.98 7.99 -4 9 C-2.68 6.03 -1.36 3.06 0 0 Z " fill="#121212" transform="translate(258,576)"/>
<path d="M0 0 C3.63 0 7.26 0 11 0 C11 0.33 11 0.66 11 1 C8.36 1 5.72 1 3 1 C3 1.66 3 2.32 3 3 C1.68 3 0.36 3 -1 3 C-0.67 2.01 -0.34 1.02 0 0 Z " fill="#D5D5D5" transform="translate(706,213)"/>
<path d="M0 0 C2.05078125 0.03255208 4.1015625 0.06510417 6.15234375 0.09765625 C4.1000069 2.34545375 3.14567114 3.09988045 0.15234375 4.09765625 C-0.83765625 3.10765625 -1.82765625 2.11765625 -2.84765625 1.09765625 C-1.84765625 0.09765625 -1.84765625 0.09765625 0 0 Z " fill="#141414" transform="translate(992.84765625,161.90234375)"/>
<path d="M0 0 C0.66 0.33 1.32 0.66 2 1 C1.34 2.65 0.68 4.3 0 6 C-1.32 5.34 -2.64 4.68 -4 4 C-2.68 2.68 -1.36 1.36 0 0 Z " fill="#E2E2E2" transform="translate(1155,56)"/>
<path d="M0 0 C0.66 0.33 1.32 0.66 2 1 C1.01 2.98 0.02 4.96 -1 7 C-1.66 6.67 -2.32 6.34 -3 6 C-3 5.34 -3 4.68 -3 4 C-3.66 3.67 -4.32 3.34 -5 3 C-3.68 3 -2.36 3 -1 3 C-0.67 2.01 -0.34 1.02 0 0 Z " fill="#E1DFE0" transform="translate(194,695)"/>
<path d="M0 0 C0.66 0.33 1.32 0.66 2 1 C-2.625 5.875 -2.625 5.875 -6 7 C-4.77065985 3.31197956 -3.06140622 2.27643027 0 0 Z " fill="#E3E2E1" transform="translate(373,624)"/>
<path d="M0 0 C1.32 0.99 2.64 1.98 4 3 C3.67 3.66 3.34 4.32 3 5 C2.01 5.33 1.02 5.66 0 6 C-1.125 2.25 -1.125 2.25 0 0 Z " fill="#ECECEB" transform="translate(313,429)"/>
<path d="M0 0 C0.99 0.33 1.98 0.66 3 1 C3 2.98 3 4.96 3 7 C2.34 7 1.68 7 1 7 C0.67 4.69 0.34 2.38 0 0 Z " fill="#EAEAEA" transform="translate(211,378)"/>
</svg>
